
<svg width="800" height="798.4" xmlns="http://www.w3.org/2000/svg">
    <defs>
        <linearGradient id="grad1" x1="0%" y1="100%" x2="100%" y2="0%">
            <stop offset="0%" stop-color="#00C6FF" />
            <stop offset="100%" stop-color="#9855d7ff" />
        </linearGradient>
    </defs>
    <g transform="translate(0, 0)" id="utah">
        <path d="M91.97721042435478,798.0259625950293L91.83584614936626,784.4554834989895L91.82686478115465,784.0634169525683L91.70321717770457,782.060464261408L91.82132832129719,777.3805308926721L91.78294219963209,775.4022087519379L91.8451966149023,771.5029231585022L91.87816930915324,762.0053699722521L91.8081638500862,754.2772399384394L91.8081638500862,754.1747181584942L91.82957149486356,752.8551528389216L91.82957149486356,752.777208286825L91.81394637482299,740.8766490750322L91.81394637482299,740.8340760218825L91.83387763030623,733.5015966429983L91.74984647293604,731.4322897496086L91.71871926530184,722.0433439258195L91.72068778436187,720.4152291842829L91.71662771380034,718.1273558493676L91.72019565459595,718.0350621345033L91.68660779813581,706.4073012714507L91.746893694346,704.5449724104483L91.83842983063369,682.5928842714429L91.83141698148029,682.5536747611905L91.8455657122231,682.4433583990449L91.91458691176194,680.9934324349078L92.06099551684383,679.5445689151293L92.23890042688436,672.6517991634946L92.0907693676254,670.5050508091681L92.05988822487234,666.008568926617L92.09310698400805,661.5107939987502L91.99898716645657,643.009772322418L92.06296403590386,619.7789839419829L92.03405141221083,603.9105405511746L92.12275780234813,601.6010511519207L92.036265996152,579.6679360259859L92.03983393694944,579.6464269550188L91.99135915509942,564.6772134966486L92.07145327434773,557.7848405870873L92.06800836599359,557.1587537759624L92.0320828931508,553.2007055739086L92.08191103185527,528.578891149763L92.15339288021823,525.3073251672095L92.11685224516805,505.5706968736158L92.23299486970427,505.373468412532L92.2904510197659,504.97900109965667L92.16126695645835,484.91875384269406L92.41040764997888,406.36141193538606L92.33055959560988,399.5351863236019L92.38653935637558,364.9124399626435L92.32379281134308,359.3499542043055L92.39379827041012,355.0474949853169L92.40364086571026,341.4209665509743L92.47487664919026,326.8382086669026L92.44042756564158,321.4998450942021L92.49566913176022,310.6060604968425L92.45199261512062,309.58710260384305L92.5243356905703,289.0203766019331L92.5212598795406,262.1803104468472L92.56456729885758,257.8966773602979L92.63937102313503,257.0143722212806L92.6024612907604,246.63402949682313L92.59520237672768,246.4193386283805L92.63161997933457,244.67431221978677L92.85012559498682,209.06430524120333L92.81001701914101,203.80719589232012L92.81346192749515,203.71964776055484L92.89060326815525,201.6939853273334L93.01744971507833,164.5488257514171L93.10332635906707,130.61555558047894L92.96725247905124,130.09696996988896L93.10960101357159,128.61924744569114L93.25293380762196,84.08020140631379L93.1654577418958,82.72816627942848L93.22758912472455,63.7450640124207L93.28529133966731,62.17449922355809L93.29353451323186,40.94404563640819L93.13962092923612,24.965431739226005L93.14515738909176,24.969065461895298L93.32466172086788,19.31166238832975L93.06936940528249,1.2990735924377077L98.95278074560156,1.4682542608579752L111.33501169734518,2.236485724501108L120.08237220495357,2.166633767093117L123.29118130505594,2.0631791879432058L127.17310089120838,2.004416534668053L159.6158944203271,1.4515349615548985L160.14358056082528,1.3677725280367667L168.1388437551068,1.28599591298007L171.7477543541354,1.2260701362283726L172.45309933979297,1.2113369510698249L177.23733885003094,1.2760634873620802L179.39520483701926,1.1290624933908475L190.3749889910141,0.9861980756923003L190.5804531678914,0.8880293980864735L221.13408356170112,0.5536199549460434L223.7919533899094,0.5469978785977219L232.35882530621348,0.4595860806912242L235.7077683568914,0.43789857156934886L235.9228290641895,0.4380641252409987L241.76613182866276,0.36786913422201906L241.7711761587525,0.3744913231676037L247.25128715667051,0.31224258275233296L256.99139643268427,0.2082731216405591L264.5401748976892,0.20860423620342772L288.80278747333796,0.10165369142123382L288.8331764863233,0.07864097095171019L296.7560966051533,0.0730119525360351L311.67181158700623,0.09536244909122615L314.84961651191225,0.0579460355147603L320.52522605896957,0.06622401456934313L322.93961468595626,0.8276047150993691L324.09562750388795,0.8044280324102147L330.7915450861856,0.6570893572807108L342.76899930623404,0.5325948481695377L354.6223137930647,0.5046164914001565L354.64876576793176,0.5084242011289462L359.46314822627573,0.5031265176530724L374.92992551246425,0.37035245556580776L404.8900474097063,0.33922811910451856L409.30482049888997,0.3026403506873976L414.9453658001912,0.12036183720647387L415.5158672302423,0.12814309159875847L416.1341052474945,0.13559322339824575L461.5557140359524,-9.094947017729282e-13L461.66644323307264,71.93825148889391L461.608002823481,102.7816383018262L461.5666639232222,105.5750345118131L461.5726925128438,123.42343626282127L461.5515309329494,164.86948012709672L497.96864141159494,165.05075076153844L502.36102259647123,165.1322563451713L523.9171675296184,165.13241935571932L528.7278590147234,165.39323306505958L544.1074063000669,165.36046869049278L559.4870766178519,165.1743129845254L561.0693968446994,165.28222500379616L574.8661317734313,165.09916515276382L575.3668738092965,165.00934568824687L589.5333212239693,164.89295419456175L590.2453099614504,164.96842949452912L590.3523481853354,164.9720157806869L593.3430207671063,164.87714180752937L608.1353342103903,164.92571999465417L608.2579975543104,164.918058348856L625.3463424161037,164.8316606883136L625.5348281160896,164.81943454816337L630.1431312353488,164.7984055545685L647.5516065092561,164.83948541070367L651.7632530379451,164.67907746272886L682.5163190190087,164.37227429048926L684.8231772923464,164.2010997441339L691.9963377142321,164.39672757449443L707.2038856467152,164.4293318666014L707.4033212339727,192.8516680196044L707.3254416986656,210.9684708421555L707.4286659168702,220.85905296691544L707.4538875673243,226.43141004908284L707.2041317115982,239.20814468130357L707.2187725721069,239.28213080966634L707.1273594682625,245.7459550964668L707.1746039256996,246.53404588288504L707.0968474228339,254.73740638063737L707.0935255469194,297.2558995251993L707.097093487715,297.27796126429985L707.1132107375179,316.76716654545726L707.1058287910437,316.87390255860737L707.1375711608853,346.40257888934684L707.0455428948353,406.7231886722184L707.1191162946998,427.589797616326L707.0272110610877,465.81061039400356L706.9135290853792,485.79330975349967L706.8082133156731,494.8304530523865L706.8154722297058,494.8954671215879L706.7460819328444,500.77570464238124L706.728119196423,500.91325231557767L706.6978532158773,505.56516567391554L706.3042724363349,518.1262961878774L706.039383590336,530.0489803977744L705.9517844921684,549.0441761368384L705.9875869325715,564.6721828353911L705.9752836884472,599.9103143999819L706.6413813253457,604.6999525912779L708.2267773632229,617.2616152242963L708.0966090403872,643.1128178738554L708.0967320728287,643.4614484465883L708.0595762755729,647.0217749850926L708.3133922018587,657.4778183597036L708.2166887030417,662.8481543531798L708.2315756284315,667.6378374621154L708.2277616227548,668.6076232154692L708.263810128039,674.170976368614L708.185438462966,681.9715845425262L708.2422794508202,683.4932659349206L708.2270234281059,687.6975382275541L708.2304683364619,688.0036055866158L708.1643999155131,695.0227282580763L708.1865457549375,701.5909978193813L708.1813783924044,702.5436397017511L708.2213639358088,704.6389268167068L708.2141050217742,716.0390110917506L708.207953399713,716.050336515058L708.0576077565129,720.8061898969072L707.7287420410648,740.1747156109732L707.7005676120207,759.5111453576428L707.7565473727864,759.61037435856L707.7684815195898,765.5605599197497L707.7080725909345,766.9528296699782L707.7059810394348,770.7446202916044L707.8092052576394,780.8103922663113L707.8034227329008,780.8267460399347L707.8071137061379,781.2115159574059L707.8051451870797,783.2466979468954L707.8290134806794,784.7647163255642L707.8212624368825,786.5795399323888L707.8079749332283,786.8754553102017L707.8009620840785,798.2280798424072L691.0718719507204,798.1992721856614L684.5939678543091,798.2000424447879L682.986056879683,798.187718292731L680.9593434750586,798.200504600236L680.3659580109361,798.2037396878759L680.1341648916296,798.2000424447879L666.8537971188034,798.220223215777L666.461692728557,798.2182205454001L652.4222147932487,798.2248447614957L636.3873967258369,798.3476231583172L605.6286712524725,798.3174293431675L590.2491239671308,798.3999999999996L590.2246405113219,798.3177374437173L587.6530164244268,798.302332406407L532.4837933810395,798.3955325726383L529.9348072633329,797.5376008882431L528.7313039230794,797.43068239065L516.5729920144022,797.5557800169763L513.3627065250075,797.5607099453237L513.3522487675,797.5137214813576L497.9731936119206,797.5944490867851L459.1188104722205,797.7189287314031L450.848323706874,797.966959722623L435.94478893670566,797.921051276875L433.06176974102164,798.0153328566757L417.4082292090243,797.8563477927946L417.3649217897073,797.8588126939767L300.26006053180026,797.9290621595628L298.8752073731521,797.9136566110701L277.78474023011586,797.9839057477293L277.2032889127913,797.9738921904036L275.49559862831666,797.9803624899614L269.2439511913544,797.970965148952L225.36024791845557,798.0532301406074L102.3971969706854,798.0906651421637L102.3971969706854,798.0831165300779Z" class="state" fill-opacity="0.25" fill="url(#grad1)"></path>
    </g>
</svg>